<?xml version="1.0" standalone="no"?>
<!DOCTYPE svg PUBLIC "-//W3C//DTD SVG 20010904//EN"
 "http://www.w3.org/TR/2001/REC-SVG-20010904/DTD/svg10.dtd">
<svg version="1.0" xmlns="http://www.w3.org/2000/svg"
 width="400.000000pt" height="300.000000pt" viewBox="0 0 400.000000 300.000000"
 preserveAspectRatio="xMidYMid meet">
<metadata>
Created by potrace 1.13, written by Peter Selinger 2001-2015
</metadata>
<g transform="translate(0.000000,300.000000) scale(0.100000,-0.100000)"
fill="#000000" stroke="none">
<path d="M1475 2218 c-3 -7 -4 -335 -3 -728 l3 -715 495 0 495 0 3 157 3 158
-323 2 -323 3 -3 119 c-1 66 1 123 6 128 5 5 102 9 214 8 203 -1 238 3 238 22
0 6 -19 34 -43 62 -24 28 -46 56 -50 62 -4 7 16 40 43 75 28 34 49 67 47 73
-2 7 -80 13 -228 16 l-224 5 0 125 0 125 323 3 323 2 -3 153 -3 152 -493 3
c-389 2 -494 0 -497 -10z"/>
<path d="M2515 1585 c-27 -36 -51 -71 -53 -78 -4 -18 109 -150 120 -139 12 12
6 275 -7 278 -5 2 -32 -26 -60 -61z"/>
</g>
</svg>
